<?xml version="1.0" encoding="UTF-8" standalone="no"?>
<!DOCTYPE svg PUBLIC "-//W3C//DTD SVG 1.1//EN" "http://www.w3.org/Graphics/SVG/1.1/DTD/svg11.dtd">
<svg width="100%" height="100%" viewBox="0 0 42 42" version="1.1" xmlns="http://www.w3.org/2000/svg" xmlns:xlink="http://www.w3.org/1999/xlink" xml:space="preserve" xmlns:serif="http://www.serif.com/" style="fill-rule:evenodd;clip-rule:evenodd;stroke-linejoin:round;stroke-miterlimit:2;">
    <g id="Artboard1" transform="matrix(0.802115,0,0,0.856008,3.38308,0.0132606)">
        <g transform="matrix(-4.31029,-4.77648e-16,6.34654e-16,-7.07243,53.7324,-0.0154912)">
            <g transform="matrix(12,0,0,12,0,0)">
                <path d="M0.108,-0L0.687,-0.289L0.108,-0.578L0.108,-0.498L0.525,-0.289L0.108,-0.081L0.108,-0Z" style="fill:white;fill-rule:nonzero;"/>
            </g>
        </g>
        <g transform="matrix(-4.31029,-4.77648e-16,6.34654e-16,-7.07243,31.2917,-0.0154912)">
            <g transform="matrix(12,0,0,12,0,0)">
                <path d="M0.108,-0L0.687,-0.289L0.108,-0.578L0.108,-0.498L0.525,-0.289L0.108,-0.081L0.108,-0Z" style="fill:white;fill-rule:nonzero;"/>
            </g>
        </g>
    </g>
</svg>
