<?xml version="1.0" encoding="UTF-8" standalone="no"?>
<!DOCTYPE svg PUBLIC "-//W3C//DTD SVG 1.1//EN" "http://www.w3.org/Graphics/SVG/1.1/DTD/svg11.dtd">
<svg width="100%" height="100%" viewBox="0 0 50 41" version="1.1" xmlns="http://www.w3.org/2000/svg" xmlns:xlink="http://www.w3.org/1999/xlink" xml:space="preserve" xmlns:serif="http://www.serif.com/" style="fill-rule:evenodd;clip-rule:evenodd;stroke-linejoin:round;stroke-miterlimit:2;">
    <g id="Artboard1" transform="matrix(0.916763,0,0,0.830313,0.866153,0.0128625)">
        <g transform="matrix(-3.77127,5.27015e-16,-7.63573e-16,-7.11769,57.3939,-0.0154911)">
            <g transform="matrix(12,0,0,12,0,0)">
                <path d="M0.108,-0L0.687,-0.289L0.108,-0.578L0.108,-0.498L0.525,-0.289L0.108,-0.081L0.108,-0Z" style="fill:white;fill-rule:nonzero;"/>
            </g>
        </g>
        <g transform="matrix(-3.77127,5.27015e-16,-7.63573e-16,-7.11769,38.8504,-0.0154911)">
            <g transform="matrix(12,0,0,12,0,0)">
                <path d="M0.108,-0L0.687,-0.289L0.108,-0.578L0.108,-0.498L0.525,-0.289L0.108,-0.081L0.108,-0Z" style="fill:white;fill-rule:nonzero;"/>
            </g>
        </g>
        <g transform="matrix(1.45439,9.21235e-16,2.1956e-16,1.20437,-0.910953,-0.0154911)">
            <g>
                <rect x="0" y="0" width="3" height="41" style="fill:white;"/>
            </g>
        </g>
    </g>
</svg>
